<svg width="32" height="32" viewBox="0 0 72 72" fill="none" xmlns="http://www.w3.org/2000/svg">
  <title>EarlyCV</title>
  <path d="M4.17145 26.5679C4.17145 14.4176 14.0212 4.56787 26.1714 4.56787H61.5645C67.0874 4.56787 71.5645 9.04502 71.5645 14.5679V47.9609C71.5645 61.2158 60.8193 71.9609 47.5645 71.9609H14.1714C8.6486 71.9609 4.17145 67.4838 4.17145 61.9609V26.5679Z" fill="#47FF19"/>
  <path d="M22 1H66.3936V45.3936C66.3933 56.9911 56.9911 66.3933 45.3936 66.3936H1V22C1 10.402 10.402 1 22 1Z" fill="white" stroke="#1E1E1E" stroke-width="2"/>
  <path d="M21 20.9609H37" stroke="#1E1E1E" stroke-width="5" stroke-linecap="round"/>
  <path d="M21 29.9609H47" stroke="#A8A8A8" stroke-width="3" stroke-linecap="round"/>
  <path d="M21 37.9609H33" stroke="#1E1E1E" stroke-width="3" stroke-linecap="round"/>
  <path d="M20 46.9609H44" stroke="#1E1E1E" stroke-width="3" stroke-linecap="round"/>
</svg>
