<svg width="490" height="130" viewBox="0 0 490 130" fill="none" xmlns="http://www.w3.org/2000/svg" role="img" aria-label="EarlyCV">
  <title>EarlyCV</title>
  <!-- Icon: 2 camadas (novo), versão branca -->
  <path d="M4.17145 63.5679C4.17145 51.4176 14.0212 41.5679 26.1714 41.5679H61.5645C67.0874 41.5679 71.5645 46.045 71.5645 51.5679V84.9609C71.5645 98.2158 60.8193 108.961 47.5645 108.961H14.1714C8.6486 108.961 4.17145 104.484 4.17145 98.9609V63.5679Z" fill="#47FF19"/>
  <path d="M22 38H66.3936V82.3936C66.3933 93.9911 56.9911 103.393 45.3936 103.394H1V59C1 47.402 10.402 38 22 38Z" fill="white" stroke="#1E1E1E" stroke-width="2"/>
  <path d="M21 57.9609H37" stroke="#1E1E1E" stroke-width="5" stroke-linecap="round"/>
  <path d="M21 66.9609H47" stroke="#A8A8A8" stroke-width="3" stroke-linecap="round"/>
  <path d="M21 74.9609H33" stroke="#1E1E1E" stroke-width="3" stroke-linecap="round"/>
  <path d="M20 83.9609H44" stroke="#1E1E1E" stroke-width="3" stroke-linecap="round"/>
  <!-- Wordmark branco -->
  <path d="M131.7 102.2C126.233 102.2 121.467 101.067 117.4 98.8C113.4 96.4667 110.267 93.2 108 89C105.8 84.8 104.7 79.8667 104.7 74.2C104.7 68.5333 105.8 63.6333 108 59.5C110.267 55.3 113.4 52.0333 117.4 49.7C121.4 47.3667 126.133 46.2 131.6 46.2C136.933 46.2 141.567 47.3667 145.5 49.7C149.433 52.0333 152.467 55.3667 154.6 59.7C156.8 64.0333 157.9 69.2 157.9 75.2V78.2H120.2C120.4 82.4667 121.533 85.6333 123.6 87.7C125.733 89.7667 128.533 90.8 132 90.8C134.533 90.8 136.633 90.2667 138.3 89.2C140.033 88.1333 141.267 86.5 142 84.3L157.1 85.2C155.7 90.5333 152.733 94.7 148.2 97.7C143.667 100.7 138.167 102.2 131.7 102.2ZM120.2 69H142.5C142.3 65.0667 141.2 62.1333 139.2 60.2C137.267 58.2667 134.733 57.3 131.6 57.3C128.467 57.3 125.867 58.3333 123.8 60.4C121.8 62.4 120.6 65.2667 120.2 69ZM183.559 102.2C178.025 102.2 173.492 100.933 169.959 98.4C166.492 95.8 164.759 92.2 164.759 87.6C164.759 82.8667 166.225 79.2333 169.159 76.7C172.159 74.1 176.559 72.2 182.359 71L199.659 67.6C199.659 64.1333 198.859 61.5333 197.259 59.8C195.725 58 193.492 57.1 190.559 57.1C187.692 57.1 185.459 57.7667 183.859 59.1C182.259 60.3667 181.225 62.2667 180.759 64.8L165.659 64.1C166.659 58.2333 169.292 53.8 173.559 50.8C177.892 47.7333 183.559 46.2 190.559 46.2C198.559 46.2 204.559 48.1 208.559 51.9C212.625 55.7 214.659 61.2667 214.659 68.6V86.9C214.659 88.4333 214.892 89.4667 215.359 90C215.892 90.4667 216.659 90.7 217.659 90.7H219.159V101C218.692 101.133 217.925 101.267 216.859 101.4C215.859 101.533 214.859 101.6 213.859 101.6C211.725 101.6 209.725 101.233 207.859 100.5C206.059 99.7667 204.592 98.5333 203.459 96.8C202.325 95 201.759 92.4667 201.759 89.2L203.059 90.2C202.392 92.6 201.192 94.7 199.459 96.5C197.792 98.3 195.592 99.7 192.859 100.7C190.192 101.7 187.092 102.2 183.559 102.2ZM187.159 91.9C189.625 91.9 191.792 91.4333 193.659 90.5C195.525 89.5 196.992 88.0667 198.059 86.2C199.125 84.3333 199.659 82.1333 199.659 79.6V77L187.459 79.6C185.059 80.0667 183.225 80.8667 181.959 82C180.759 83.0667 180.159 84.4667 180.159 86.2C180.159 88 180.759 89.4 181.959 90.4C183.159 91.4 184.892 91.9 187.159 91.9ZM227.034 101V47.4H241.234L241.734 63L240.634 62.7C241.5 57.3 243.034 53.4 245.234 51C247.434 48.6 250.467 47.4 254.334 47.4H259.234V59.8H254.334C251.534 59.8 249.234 60.1667 247.434 60.9C245.634 61.6333 244.267 62.8 243.334 64.4C242.467 66 242.034 68.1667 242.034 70.9V101H227.034ZM281.073 101C276.673 101 273.239 99.9 270.773 97.7C268.306 95.5 267.073 91.9333 267.073 87V30H282.073V85.4C282.073 87 282.439 88.1333 283.173 88.8C283.906 89.4667 284.973 89.8 286.373 89.8H289.973V101H281.073ZM299.402 116V104.8H306.502C308.236 104.8 309.502 104.533 310.302 104C311.169 103.533 311.836 102.667 312.302 101.4L313.402 98.3H309.302L290.502 47.4H305.802L318.102 84.3L329.602 47.4H344.902L324.302 106.1C323.102 109.633 321.369 112.167 319.102 113.7C316.836 115.233 313.669 116 309.602 116H299.402ZM383.031 102.6C376.565 102.6 370.798 101.133 365.731 98.2C360.731 95.2667 356.798 91.0333 353.931 85.5C351.131 79.9667 349.731 73.3333 349.731 65.6C349.731 58.0667 351.098 51.5333 353.831 46C356.565 40.4 360.465 36.0667 365.531 33C370.598 29.9333 376.531 28.4 383.331 28.4C392.598 28.4 399.798 30.7 404.931 35.3C410.131 39.8333 413.465 46.3333 414.931 54.8L399.131 55.4C398.331 50.9333 396.598 47.4667 393.931 45C391.265 42.4667 387.731 41.2 383.331 41.2C379.531 41.2 376.298 42.2 373.631 44.2C370.965 46.2 368.931 49.0333 367.531 52.7C366.131 56.3667 365.431 60.6667 365.431 65.6C365.431 70.6 366.131 74.9333 367.531 78.6C368.998 82.2 371.065 84.9667 373.731 86.9C376.398 88.8333 379.565 89.8 383.231 89.8C388.031 89.8 391.731 88.4667 394.331 85.8C396.998 83.0667 398.665 79.3 399.331 74.5L415.231 75.1C414.298 80.9 412.465 85.8333 409.731 89.9C406.998 93.9667 403.398 97.1 398.931 99.3C394.531 101.5 389.231 102.6 383.031 102.6ZM443.93 101L418.33 30H434.03L452.93 83.9L471.83 30H487.53L461.83 101H443.93Z" fill="white"/>
</svg>
